<svg width="116" height="116" viewBox="0 0 116 116" fill="none" xmlns="http://www.w3.org/2000/svg">
<g clip-path="url(#clip0_835_3637)">
<path d="M111.865 58.0015C121.226 75.463 114.154 91.2679 96.1018 96.0867C91.2866 114.153 75.4907 121.23 58.0454 111.861C40.597 121.23 24.8041 114.153 19.9889 96.0867C1.93642 91.2679 -5.13536 75.46 4.22621 58.0015C-5.13536 40.54 1.93642 24.7351 19.9889 19.9163C24.8011 1.84711 40.597 -5.23001 58.0424 4.13863C75.4907 -5.23001 91.2836 1.84711 96.0988 19.9133C114.151 24.7321 121.223 40.54 111.862 57.9985L111.865 58.0015Z" fill="#9BD749"/>
<path d="M58.0423 4.13863C40.594 -5.23001 24.801 1.84711 19.9858 19.9133L58.0423 57.9985V4.13863Z" fill="#9BD749"/>
<path d="M58.0422 111.861C75.4906 121.23 91.2835 114.153 96.0987 96.0867L58.0422 58.0015V111.864V111.861Z" fill="#9BD749"/>
<path d="M58.0422 58.0015L19.9857 19.9163C1.93324 24.7321 -5.13853 40.54 4.22303 58.0015H58.0452H58.0422Z" fill="#9BD749"/>
<path d="M58.1298 58.0015H4.31064C-5.05092 74.1842 1.11762 90.364 20.0733 96.0867L58.1298 58.0015Z" fill="#9BD749"/>
<path d="M37.4584 47.7652C40.2946 47.7652 42.5938 45.532 42.5938 42.7771C42.5938 40.0222 40.2946 37.7889 37.4584 37.7889C34.6222 37.7889 32.323 40.0222 32.323 42.7771C32.323 45.532 34.6222 47.7652 37.4584 47.7652Z" fill="#333333"/>
<path d="M59.2084 47.7652C62.0446 47.7652 64.3438 45.4643 64.3438 42.6259C64.3438 39.7876 62.0446 37.4866 59.2084 37.4866C56.3722 37.4866 54.073 39.7876 54.073 42.6259C54.073 45.4643 56.3722 47.7652 59.2084 47.7652Z" fill="#333333"/>
<path d="M58.5264 53.8115C57.2174 55.1719 55.3848 58.7391 58.5264 62.125" stroke="#333333" stroke-width="4"/>
<path d="M54.9792 37.4088C56.3386 36.0988 59.9032 34.2647 63.2865 37.4088" stroke="#333333" stroke-width="4"/>
<path d="M33.2292 33.1764C34.5886 31.8664 38.1532 30.0323 41.5365 33.1764" stroke="#333333" stroke-width="4"/>
<line x1="39.875" y1="56.6485" x2="56.7917" y2="56.6485" stroke="#333333" stroke-width="4"/>
</g>
<defs>
<clipPath id="clip0_835_3637">
<rect width="116" height="116" fill="white"/>
</clipPath>
</defs>
</svg>
