<svg width="24" height="24" viewBox="0 0 24 24" fill="none" xmlns="http://www.w3.org/2000/svg">
<path d="M16.1012 5.91894L11.9999 10.0202L7.61588 5.6361C7.06999 5.09021 6.18186 5.09021 5.63598 5.6361C5.09009 6.18199 5.09009 7.07011 5.63598 7.616L10.02 12.0001L5.91882 16.1013C5.37293 16.6472 5.37293 17.5353 5.91882 18.0812C6.46471 18.6271 7.35283 18.6271 7.89872 18.0812L11.9999 13.98L16.384 18.364C16.9299 18.9099 17.818 18.9099 18.3639 18.364C18.9098 17.8181 18.9098 16.93 18.3639 16.3841L13.9798 12.0001L18.0811 7.89884C18.6269 7.35295 18.6269 6.46483 18.0811 5.91894C17.5352 5.37306 16.647 5.37306 16.1012 5.91894Z" fill="#393939"/>
</svg>
