<svg width="14" height="14" viewBox="0 0 14 14" fill="none" xmlns="http://www.w3.org/2000/svg">
<path d="M10.8746 0.692258L6.77338 4.79348L2.38931 0.409415C1.84343 -0.136472 0.955301 -0.136472 0.409415 0.409415C-0.136472 0.955301 -0.136472 1.84343 0.409415 2.38931L4.79348 6.77338L0.692258 10.8746C0.146371 11.4205 0.146371 12.3086 0.692258 12.8545C1.23814 13.4004 2.12627 13.4004 2.67216 12.8545L6.77338 8.75327L11.1574 13.1373C11.7033 13.6832 12.5915 13.6832 13.1373 13.1373C13.6832 12.5915 13.6832 11.7033 13.1373 11.1574L8.75327 6.77338L12.8545 2.67216C13.4004 2.12627 13.4004 1.23814 12.8545 0.692258C12.3086 0.146371 11.4205 0.146371 10.8746 0.692258Z" fill="white"/>
</svg>
