<svg width="40" height="40" viewBox="0 0 40 40" fill="none" xmlns="http://www.w3.org/2000/svg">
<path d="M19.9995 2.33337C23.8009 2.33337 27.4472 3.84359 30.1353 6.53162C32.8231 9.21955 34.3334 12.8651 34.3335 16.6664C34.3335 21.1644 31.8571 25.633 29.1255 29.222C26.3708 32.8414 23.2299 35.7282 21.6548 37.0883C21.6378 37.103 21.62 37.1177 21.6021 37.1312C21.1401 37.4785 20.5775 37.6664 19.9995 37.6664C19.4215 37.6663 18.859 37.4786 18.397 37.1312C18.379 37.1177 18.3613 37.103 18.3442 37.0883C16.769 35.7281 13.629 32.841 10.8745 29.222C8.14291 25.633 5.6665 21.1644 5.6665 16.6664C5.66659 12.8651 7.1768 9.21956 9.86475 6.53162C12.5527 3.84367 16.1982 2.33346 19.9995 2.33337ZM20.0005 11.6664C17.2392 11.6664 15.0006 13.9051 15.0005 16.6664C15.0005 19.4278 17.2391 21.6664 20.0005 21.6664C22.7617 21.6662 25.0005 19.4277 25.0005 16.6664C25.0003 13.9052 22.7616 11.6666 20.0005 11.6664Z" fill="#7EBE27"/>
</svg>
