<svg width="116" height="116" viewBox="0 0 116 116" fill="none" xmlns="http://www.w3.org/2000/svg">
<g clip-path="url(#clip0_1253_4403)">
<path d="M111.865 58.0016C121.226 75.4632 114.155 91.268 96.1021 96.0868C91.2869 114.153 75.4909 121.23 58.0456 111.861C40.5973 121.23 24.8044 114.153 19.9892 96.0868C1.93666 91.268 -5.13511 75.4601 4.22645 58.0016C-5.13511 40.5401 1.93666 24.7352 19.9892 19.9164C24.8013 1.84723 40.5973 -5.22988 58.0426 4.13876C75.4909 -5.22988 91.2838 1.84723 96.0991 19.9134C114.152 24.7322 121.223 40.5401 111.862 57.9986L111.865 58.0016Z" fill="#F0F0F0"/>
<path d="M37.4587 47.7653C40.2949 47.7653 42.5941 45.5321 42.5941 42.7772C42.5941 40.0223 40.2949 37.7891 37.4587 37.7891C34.6224 37.7891 32.3232 40.0223 32.3232 42.7772C32.3232 45.5321 34.6224 47.7653 37.4587 47.7653Z" fill="#333333"/>
<path d="M59.2087 47.7654C62.0449 47.7654 64.3441 45.4645 64.3441 42.6261C64.3441 39.7878 62.0449 37.4868 59.2087 37.4868C56.3724 37.4868 54.0732 39.7878 54.0732 42.6261C54.0732 45.4645 56.3724 47.7654 59.2087 47.7654Z" fill="#333333"/>
<path d="M58.5267 53.8115C57.2176 55.1719 55.385 58.7392 58.5267 62.1251" stroke="#333333" stroke-width="4"/>
<path d="M54.9795 35.4088C56.3389 34.0988 59.9035 32.2648 63.2868 35.4088" stroke="#333333" stroke-width="4"/>
<path d="M33.2295 33.1764C34.5889 31.8664 38.1535 30.0324 41.5368 33.1764" stroke="#333333" stroke-width="4"/>
<line x1="40" y1="57" x2="56.9167" y2="57" stroke="#333333" stroke-width="4"/>
</g>
<defs>
<clipPath id="clip0_1253_4403">
<rect width="116" height="116" fill="white"/>
</clipPath>
</defs>
</svg>
