<svg width="117" height="116" viewBox="0 0 117 116" fill="none" xmlns="http://www.w3.org/2000/svg">
<g clip-path="url(#clip0_867_4661)">
<path d="M112.364 58.0015C121.726 75.463 114.654 91.2679 96.6016 96.0867C91.7864 114.153 75.9904 121.23 58.5451 111.861C41.0968 121.23 25.3039 114.153 20.4887 96.0867C2.43617 91.2679 -4.6356 75.46 4.72596 58.0015C-4.6356 40.54 2.43617 24.7351 20.4887 19.9163C25.3009 1.84712 41.0968 -5.22999 58.5421 4.13865C75.9904 -5.22999 91.7834 1.84713 96.5986 19.9133C114.651 24.7321 121.723 40.54 112.361 57.9985L112.364 58.0015Z" fill="#9BD749"/>
<path d="M58.5423 4.13865C41.094 -5.22999 25.301 1.84713 20.4858 19.9133L58.5423 57.9985V4.13865Z" fill="#9BD749"/>
<path d="M58.5425 111.861C75.9908 121.23 91.7837 114.153 96.5989 96.0867L58.5425 58.0015V111.864V111.861Z" fill="#9BD749"/>
<path d="M58.5422 58.0015L20.4857 19.9163C2.43324 24.7321 -4.63853 40.54 4.72303 58.0015H58.5452H58.5422Z" fill="#9BD749"/>
<path d="M58.6298 58.0015H4.81064C-4.55092 74.1843 1.61762 90.364 20.5733 96.0867L58.6298 58.0015Z" fill="#9BD749"/>
<path d="M55.7025 51.6099C55.5094 61.3673 49.1063 61.0244 45.1214 53.6699C44.2378 52.0392 45.3628 50.134 47.1906 49.818L52.3785 48.9209C54.0983 48.6235 55.7371 49.8648 55.7025 51.6099Z" fill="#333333"/>
<path d="M55.479 41.9434C56.8384 40.6334 60.403 38.7994 63.7863 41.9434" stroke="#333333" stroke-width="2"/>
<path d="M33.729 41.9434C35.0884 40.6334 38.653 38.7994 42.0363 41.9434" stroke="#333333" stroke-width="2"/>
</g>
<defs>
<clipPath id="clip0_867_4661">
<rect width="116" height="116" fill="white" transform="translate(0.5)"/>
</clipPath>
</defs>
</svg>
