<svg width="24" height="24" viewBox="0 0 24 24" fill="none" xmlns="http://www.w3.org/2000/svg">
<g clip-path="url(#clip0_930_4200)">
<path d="M18.7281 23.004H15.5801C14.8001 23.004 14.1641 22.368 14.1641 21.588V16.192C14.1641 16.08 14.0761 15.992 13.9641 15.992H10.0401C9.92809 15.992 9.84009 16.08 9.84009 16.192V21.588C9.84009 22.368 9.20409 23.004 8.42409 23.004H5.27609C4.50409 23.004 3.87609 22.376 3.87609 21.604V13.608C3.87609 13.588 3.86009 13.572 3.84009 13.572H1.84409C1.26809 13.572 0.760089 13.228 0.544089 12.696C0.328089 12.164 0.460089 11.564 0.872089 11.164L11.0281 1.388C11.5721 0.863995 12.4241 0.863995 12.9681 1.388L23.1281 11.164C23.5401 11.564 23.6721 12.164 23.4561 12.696C23.2401 13.228 22.7321 13.572 22.1561 13.572H20.1601C20.1401 13.572 20.1241 13.588 20.1241 13.608V21.604C20.1241 22.376 19.4961 23.004 18.7241 23.004H18.7281ZM10.0361 14.788H13.9601C14.7321 14.788 15.3601 15.416 15.3601 16.188V21.584C15.3601 21.704 15.4561 21.8 15.5761 21.8H18.7241C18.8361 21.8 18.9241 21.712 18.9241 21.6V13.604C18.9241 12.92 19.4801 12.368 20.1601 12.368H22.1561C22.2721 12.368 22.3241 12.288 22.3401 12.244C22.3641 12.188 22.3721 12.104 22.2921 12.024L12.1401 2.252C12.0641 2.176 11.9401 2.176 11.8641 2.252L1.70009 12.028C1.62009 12.104 1.63209 12.188 1.65209 12.248C1.67209 12.296 1.72009 12.372 1.83609 12.372H3.83209C4.51609 12.372 5.06809 12.928 5.06809 13.608V21.604C5.06809 21.716 5.15609 21.804 5.26809 21.804H8.41609C8.53609 21.804 8.63209 21.708 8.63209 21.588V16.192C8.63209 15.42 9.26009 14.792 10.0321 14.792L10.0361 14.788Z" fill="#9D9D9D"/>
</g>
<defs>
<clipPath id="clip0_930_4200">
<rect width="24" height="24" fill="white"/>
</clipPath>
</defs>
</svg>
