<svg width="32" height="32" viewBox="0 0 32 32" fill="none" xmlns="http://www.w3.org/2000/svg">
<path d="M30.2882 15.4613L16.7415 2.42662C16.3308 2.03195 15.6748 2.03195 15.2642 2.42662L1.71217 15.4613C1.01883 16.1279 1.4935 17.2959 2.4535 17.2959H5.96817V28.8053C5.96817 29.392 6.44817 29.872 7.03483 29.872H12.3202V23.5253C12.3202 22.9386 12.8002 22.4586 13.3868 22.4586H18.6188C19.2055 22.4586 19.6855 22.9386 19.6855 23.5253V29.872H24.9708C25.5575 29.872 26.0375 29.392 26.0375 28.8053V17.2959H29.5522C30.5122 17.2959 30.9815 16.1279 30.2935 15.4613H30.2882Z" fill="#7EBE27"/>
</svg>
