<svg width="24" height="24" viewBox="0 0 24 24" fill="none" xmlns="http://www.w3.org/2000/svg">
<path d="M12 1.00024C14.3869 1.00024 16.6764 1.94816 18.3643 3.63599C20.0521 5.32381 21 7.6133 21 10.0002L20.9951 10.2659C20.9023 13.0064 19.3956 15.6712 17.7939 17.7756C16.1176 19.9781 14.2101 21.7311 13.2549 22.5559C13.238 22.5705 13.22 22.5854 13.2021 22.5989C12.8557 22.8593 12.4334 23.0002 12 23.0002C11.5666 23.0002 11.1443 22.8594 10.7979 22.5989C10.7799 22.5854 10.7621 22.5706 10.7451 22.5559C9.78983 21.731 7.88246 19.9782 6.20605 17.7756C4.55269 15.6033 3.00012 12.8338 3 10.0002C3 7.61345 3.94812 5.32378 5.63574 3.63599C7.32349 1.94824 9.61317 1.00033 12 1.00024ZM12 7.00024C10.3434 7.0005 9 8.34355 9 10.0002C9.00019 11.6568 10.3435 13 12 13.0002C13.6567 13.0002 14.9998 11.6569 15 10.0002C15 8.34339 13.6569 7.00024 12 7.00024Z" fill="#393939"/>
</svg>
