<svg width="20" height="20" viewBox="0 0 20 20" fill="none" xmlns="http://www.w3.org/2000/svg">
<path d="M7.86765 4.47198C7.96424 4.3752 8.07897 4.29841 8.20527 4.24602C8.33157 4.19362 8.46696 4.16666 8.6037 4.16666C8.74044 4.16666 8.87583 4.19362 9.00213 4.24602C9.12844 4.29841 9.24317 4.3752 9.33975 4.47198L14.1319 9.26416C14.2287 9.36075 14.3055 9.47548 14.3579 9.60178C14.4103 9.72808 14.4373 9.86347 14.4373 10.0002C14.4373 10.1369 14.4103 10.2723 14.3579 10.3986C14.3055 10.5249 14.2287 10.6397 14.1319 10.7363L9.33975 15.5284C9.24309 15.6251 9.12834 15.7018 9.00205 15.7541C8.87576 15.8064 8.7404 15.8333 8.6037 15.8333C8.467 15.8333 8.33164 15.8064 8.20535 15.7541C8.07906 15.7018 7.96431 15.6251 7.86765 15.5284C7.77099 15.4318 7.69431 15.317 7.642 15.1907C7.58969 15.0644 7.56276 14.9291 7.56276 14.7924C7.56276 14.6557 7.58969 14.5203 7.642 14.394C7.69431 14.2677 7.77099 14.153 7.86765 14.0563L11.9186 9.99499L7.86765 5.94409C7.46047 5.53691 7.47091 4.86872 7.86765 4.47198Z" fill="#393939"/>
</svg>
