<svg width="24" height="24" viewBox="0 0 24 24" fill="none" xmlns="http://www.w3.org/2000/svg">
<path d="M9.3548 5.36639C9.4672 5.25025 9.60072 5.1581 9.7477 5.09523C9.89468 5.03236 10.0522 5 10.2114 5C10.3705 5 10.528 5.03236 10.675 5.09523C10.822 5.1581 10.9555 5.25025 11.0679 5.36639L16.6447 11.117C16.7573 11.2329 16.8467 11.3706 16.9076 11.5221C16.9686 11.6737 17 11.8362 17 12.0003C17 12.1644 16.9686 12.3268 16.9076 12.4784C16.8467 12.6299 16.7573 12.7676 16.6447 12.8835L11.0679 18.6341C10.9554 18.7501 10.8219 18.8421 10.6749 18.9049C10.528 18.9677 10.3704 19 10.2114 19C10.0523 19 9.89476 18.9677 9.74779 18.9049C9.60082 18.8421 9.46729 18.7501 9.3548 18.6341C9.24231 18.5181 9.15309 18.3804 9.09221 18.2289C9.03133 18.0773 9 17.9149 9 17.7509C9 17.5868 9.03133 17.4244 9.09221 17.2729C9.15309 17.1213 9.24231 16.9836 9.3548 16.8676L14.0689 11.994L9.3548 7.13292C8.88096 6.6443 8.89311 5.84248 9.3548 5.36639Z" fill="white"/>
</svg>
