<svg width="25" height="25" viewBox="0 0 25 25" fill="none" xmlns="http://www.w3.org/2000/svg">
<path fill-rule="evenodd" clip-rule="evenodd" d="M10.9479 5.4375C10.301 5.6125 9.69688 5.88646 9.27604 6.26562C8.12708 7.30208 7.65938 8.70625 7.65938 11.2375C7.65938 13.0417 6.63229 14.75 5.89271 15.8563C5.73229 16.0979 5.68229 16.3281 5.69167 16.4667C5.69583 16.5292 5.71042 16.5583 5.71667 16.5688C5.72083 16.576 5.73333 16.5958 5.78333 16.6229C6.50417 17.0083 7.59167 17.2896 8.84896 17.4677C10.0592 17.6301 11.279 17.7105 12.5 17.7083C12.7763 17.7083 13.0412 17.8181 13.2366 18.0134C13.4319 18.2088 13.5417 18.4737 13.5417 18.75C13.5417 19.0263 13.4319 19.2912 13.2366 19.4866C13.0412 19.6819 12.7763 19.7917 12.5 19.7917C11.325 19.7917 9.9125 19.724 8.55625 19.5313C7.22083 19.3406 5.84479 19.0177 4.80104 18.4604C4.03333 18.05 3.6625 17.3354 3.61354 16.6073C3.56563 15.9208 3.79792 15.2427 4.16042 14.7C4.90729 13.5813 5.57604 12.3469 5.57604 11.2375C5.57604 8.46563 6.08854 6.33438 7.88125 4.71875C8.63646 4.0375 9.58542 3.64896 10.401 3.42708C11.085 3.23742 11.7903 3.1359 12.5 3.125C12.7763 3.125 13.0412 3.23475 13.2366 3.4301C13.4319 3.62545 13.5417 3.8904 13.5417 4.16667C13.5417 4.44293 13.4319 4.70789 13.2366 4.90324C13.0412 5.09859 12.7763 5.20833 12.5 5.20833C12.1813 5.20833 11.5875 5.2625 10.9479 5.4375Z" fill="#222222"/>
<path fill-rule="evenodd" clip-rule="evenodd" d="M14.0521 5.4375C14.699 5.6125 15.3032 5.88646 15.724 6.26562C16.873 7.30208 17.3407 8.70625 17.3407 11.2375C17.3407 13.0417 18.3677 14.75 19.1073 15.8563C19.2677 16.0979 19.3177 16.3281 19.3084 16.4667C19.3089 16.5023 19.3003 16.5374 19.2834 16.5688C19.2792 16.576 19.2667 16.5958 19.2167 16.6229C18.4959 17.0083 17.4084 17.2896 16.1511 17.4677C14.9409 17.6301 13.7211 17.7105 12.5 17.7083C12.2238 17.7083 11.9588 17.8181 11.7635 18.0134C11.5681 18.2088 11.4584 18.4737 11.4584 18.75C11.4584 19.0263 11.5681 19.2912 11.7635 19.4866C11.9588 19.6819 12.2238 19.7917 12.5 19.7917C13.675 19.7917 15.0865 19.724 16.4438 19.5313C17.7792 19.3406 19.1552 19.0177 20.199 18.4604C20.9667 18.05 21.3375 17.3354 21.3865 16.6073C21.4344 15.9208 21.2021 15.2427 20.8396 14.7C20.0927 13.5813 19.424 12.3469 19.424 11.2375C19.424 8.46563 18.9115 6.33438 17.1188 4.71875C16.3636 4.0375 15.4146 3.64896 14.599 3.42708C13.9151 3.23742 13.2097 3.1359 12.5 3.125C12.2238 3.125 11.9588 3.23475 11.7635 3.4301C11.5681 3.62545 11.4584 3.8904 11.4584 4.16667C11.4584 4.44293 11.5681 4.70789 11.7635 4.90324C11.9588 5.09859 12.2238 5.20833 12.5 5.20833C12.8188 5.20833 13.4125 5.2625 14.0521 5.4375Z" fill="#222222"/>
<path d="M15.2573 3.83337C15.2573 4.55733 13.8031 3.87712 12.6531 3.87712C11.5031 3.87712 10.049 4.55733 10.049 3.83233C10.049 3.10837 11.0906 2.08337 12.6531 2.08337C14.2156 2.08337 15.2573 3.10837 15.2573 3.83337Z" fill="#222222"/>
<path fill-rule="evenodd" clip-rule="evenodd" d="M10.4167 18.75C10.4167 19.3025 10.6362 19.8324 11.0269 20.2231C11.4176 20.6138 11.9475 20.8333 12.5 20.8333C13.0526 20.8333 13.5825 20.6138 13.9732 20.2231C14.3639 19.8324 14.5834 19.3025 14.5834 18.75H16.6667C16.6667 19.8551 16.2277 20.9149 15.4463 21.6963C14.6649 22.4777 13.6051 22.9167 12.5 22.9167C11.395 22.9167 10.3352 22.4777 9.55376 21.6963C8.77236 20.9149 8.33337 19.8551 8.33337 18.75H10.4167Z" fill="#222222"/>
</svg>
