<svg width="21" height="25" viewBox="0 0 21 25" fill="none" xmlns="http://www.w3.org/2000/svg">
    <path d="M2.99175 17.7339L3.06307 17.6611V17.5591V10.8136C3.06307 7.43536 5.19426 4.4989 8.38672 3.52011L8.56344 3.46593V3.28109V2.94382C8.56344 1.84006 9.44668 0.945312 10.5136 0.945312C11.5805 0.945312 12.4637 1.84006 12.4637 2.94382V3.28109V3.46593L12.6405 3.52011C15.8329 4.4989 17.9641 7.43536 17.9641 10.8136V17.5591V17.6611L18.0354 17.7339L20.1643 19.9096V20.6819H0.862915V19.9096L2.99175 17.7339ZM4.76322 18.6834V18.9334H5.01322H16.014H16.264V18.6834V10.8136C16.264 7.53276 13.737 4.94232 10.5136 4.94232C7.29021 4.94232 4.76322 7.53276 4.76322 10.8136V18.6834ZM12.4485 22.3061C12.3272 23.2919 11.4987 24.0546 10.5136 24.0546C9.52852 24.0546 8.70002 23.2919 8.57872 22.3061H12.4485Z" fill="#000" stroke="#000" stroke-width="0.5"/>
</svg>
