<svg width="20" height="20" viewBox="0 0 20 20" fill="none" xmlns="http://www.w3.org/2000/svg">
<path fill-rule="evenodd" clip-rule="evenodd" d="M4.1665 3.33333C3.94549 3.33333 3.73353 3.42113 3.57725 3.57741C3.42097 3.73369 3.33317 3.94565 3.33317 4.16667V15.8333C3.33317 16.0543 3.42097 16.2663 3.57725 16.4226C3.73353 16.5789 3.94549 16.6667 4.1665 16.6667H15.8332C16.0542 16.6667 16.2661 16.5789 16.4224 16.4226C16.5787 16.2663 16.6665 16.0543 16.6665 15.8333V11.4475C16.6665 11.2265 16.7543 11.0145 16.9106 10.8582C17.0669 10.702 17.2788 10.6142 17.4998 10.6142C17.7209 10.6142 17.9328 10.702 18.0891 10.8582C18.2454 11.0145 18.3332 11.2265 18.3332 11.4475V15.8333C18.3332 16.4964 18.0698 17.1323 17.6009 17.6011C17.1321 18.0699 16.4962 18.3333 15.8332 18.3333H4.1665C3.50346 18.3333 2.86758 18.0699 2.39874 17.6011C1.9299 17.1323 1.6665 16.4964 1.6665 15.8333V4.16667C1.6665 3.50363 1.9299 2.86774 2.39874 2.3989C2.86758 1.93006 3.50346 1.66667 4.1665 1.66667H8.34734C8.56835 1.66667 8.78031 1.75447 8.93659 1.91075C9.09287 2.06703 9.18067 2.27899 9.18067 2.5C9.18067 2.72102 9.09287 2.93298 8.93659 3.08926C8.78031 3.24554 8.56835 3.33333 8.34734 3.33333H4.1665Z" fill="#333333"/>
<path fill-rule="evenodd" clip-rule="evenodd" d="M17.8424 2.14334C17.9924 2.29377 18.0767 2.49755 18.0767 2.71C18.0767 2.92245 17.9924 3.12624 17.8424 3.27667L10.5324 10.5983C10.4581 10.6727 10.3699 10.7316 10.2728 10.7719C10.1758 10.8121 10.0717 10.8328 9.9666 10.8328C9.86151 10.8328 9.75744 10.8121 9.66036 10.7719C9.56327 10.7316 9.47506 10.6727 9.40077 10.5983C9.25075 10.4479 9.1665 10.2441 9.1665 10.0317C9.1665 9.81922 9.25075 9.61544 9.40077 9.465L16.7116 2.14334C16.8616 1.99347 17.065 1.90929 17.277 1.90929C17.4891 1.90929 17.6924 1.99347 17.8424 2.14334Z" fill="#333333"/>
<path fill-rule="evenodd" clip-rule="evenodd" d="M17.5333 1.66667C17.975 1.66667 18.3333 2.025 18.3333 2.46833V6.66667C18.3333 7.10917 17.9417 7.5 17.5 7.5C17.0583 7.5 16.6667 7.10917 16.6667 6.66667V3.33333H13.3333C12.8917 3.33333 12.5 2.9425 12.5 2.5C12.5 2.0575 12.8583 1.66667 13.3 1.66667H17.5333Z" fill="#333333"/>
</svg>
