<svg width="33" height="32" viewBox="0 0 33 32" fill="none" xmlns="http://www.w3.org/2000/svg">
<path d="M25.7425 28.4853H24.2225C23.6145 28.4853 23.0918 28.0746 22.9265 27.4667C22.8305 27.104 22.4998 26.848 22.1212 26.848C21.7425 26.848 21.4118 27.0986 21.3158 27.4667C21.1505 28.0746 20.6332 28.4853 20.0198 28.4853H18.6012C17.9932 28.4853 17.4705 28.0746 17.3052 27.4667C17.2092 27.104 16.8785 26.848 16.4998 26.848C16.1212 26.848 15.7905 27.0986 15.6945 27.4667C15.5292 28.0746 15.0118 28.4853 14.3985 28.4853H12.9798C12.3718 28.4853 11.8492 28.0746 11.6838 27.4667C11.5878 27.104 11.2572 26.848 10.8785 26.848C10.4998 26.848 10.1692 27.0986 10.0732 27.4667C9.90783 28.0746 9.3905 28.4853 8.77716 28.4853H7.25716C6.52116 28.4853 5.92383 27.888 5.92383 27.152V4.84798C5.92383 4.11198 6.52116 3.51465 7.25716 3.51465H25.7372C26.4732 3.51465 27.0705 4.11198 27.0705 4.84798V27.152C27.0705 27.888 26.4732 28.4853 25.7372 28.4853H25.7425ZM24.4198 26.8853H25.4758V5.11465H7.52383V26.8853H8.57983C8.91583 25.9146 9.83849 25.248 10.8785 25.248C11.9185 25.248 12.8412 25.9146 13.1772 26.8853H14.1958C14.5318 25.9146 15.4545 25.248 16.4945 25.248C17.5345 25.248 18.4572 25.9146 18.7932 26.8853H19.8118C20.1478 25.9146 21.0705 25.248 22.1105 25.248C23.1505 25.248 24.0732 25.9146 24.4092 26.8853H24.4198Z" fill="#9D9D9D"/>
<path d="M19.0067 8.52271H11.06C10.6388 8.52271 10.2974 8.86297 10.2974 9.28271C10.2974 9.70244 10.6388 10.0427 11.06 10.0427H19.0067C19.4279 10.0427 19.7694 9.70244 19.7694 9.28271C19.7694 8.86297 19.4279 8.52271 19.0067 8.52271Z" fill="#9D9D9D"/>
<path d="M21.94 12.2614H11.06C10.6388 12.2614 10.2974 12.6016 10.2974 13.0214C10.2974 13.4411 10.6388 13.7814 11.06 13.7814H21.94C22.3612 13.7814 22.7027 13.4411 22.7027 13.0214C22.7027 12.6016 22.3612 12.2614 21.94 12.2614Z" fill="#9D9D9D"/>
<path d="M21.94 16H11.06C10.6388 16 10.2974 16.3403 10.2974 16.76C10.2974 17.1797 10.6388 17.52 11.06 17.52H21.94C22.3612 17.52 22.7027 17.1797 22.7027 16.76C22.7027 16.3403 22.3612 16 21.94 16Z" fill="#9D9D9D"/>
</svg>
