<svg width="33" height="32" viewBox="0 0 33 32" fill="none" xmlns="http://www.w3.org/2000/svg">
<path d="M6.72363 4.84803V27.152C6.72363 27.4454 6.96363 27.6854 7.25697 27.6854H8.77697C9.03297 27.6854 9.23563 27.504 9.29963 27.2587C9.4863 26.5654 10.121 26.048 10.8783 26.048C11.6356 26.048 12.2703 26.56 12.457 27.2587C12.521 27.504 12.7236 27.6854 12.9796 27.6854H14.3983C14.6543 27.6854 14.857 27.504 14.921 27.2587C15.1076 26.5654 15.7423 26.048 16.4996 26.048C17.257 26.048 17.8916 26.56 18.0783 27.2587C18.1423 27.504 18.345 27.6854 18.601 27.6854H20.0196C20.2756 27.6854 20.4783 27.504 20.5423 27.2587C20.729 26.5654 21.3636 26.048 22.121 26.048C22.8783 26.048 23.513 26.56 23.6996 27.2587C23.7636 27.504 23.9663 27.6854 24.2223 27.6854H25.7423C26.0356 27.6854 26.2756 27.4454 26.2756 27.152V4.84803C26.2756 4.5547 26.0356 4.3147 25.7423 4.3147H7.25697C6.96363 4.3147 6.72363 4.5547 6.72363 4.84803Z" fill="#7EBE27"/>
<path d="M19.0062 8.52271H11.0595C10.6383 8.52271 10.2969 8.86297 10.2969 9.28271C10.2969 9.70244 10.6383 10.0427 11.0595 10.0427H19.0062C19.4274 10.0427 19.7689 9.70244 19.7689 9.28271C19.7689 8.86297 19.4274 8.52271 19.0062 8.52271Z" fill="white"/>
<path d="M21.9395 12.2612H11.0595C10.6383 12.2612 10.2969 12.6015 10.2969 13.0212C10.2969 13.441 10.6383 13.7812 11.0595 13.7812H21.9395C22.3608 13.7812 22.7022 13.441 22.7022 13.0212C22.7022 12.6015 22.3608 12.2612 21.9395 12.2612Z" fill="white"/>
<path d="M21.9395 16H11.0595C10.6383 16 10.2969 16.3403 10.2969 16.76C10.2969 17.1797 10.6383 17.52 11.0595 17.52H21.9395C22.3608 17.52 22.7022 17.1797 22.7022 16.76C22.7022 16.3403 22.3608 16 21.9395 16Z" fill="white"/>
</svg>
