<svg width="20" height="20" viewBox="0 0 20 20" fill="none" xmlns="http://www.w3.org/2000/svg">
<path d="M16.6666 9.16671C16.4628 7.70022 15.7825 6.34142 14.7305 5.29962C13.6785 4.25782 12.3131 3.59081 10.8447 3.40133C9.3763 3.21186 7.88633 3.51044 6.60431 4.25108C5.3223 4.99171 4.31935 6.13332 3.74998 7.50004M3.33331 4.16671V7.50004H6.66665M3.33331 10.8334C3.53711 12.2999 4.21742 13.6587 5.26945 14.7005C6.32147 15.7423 7.68685 16.4093 9.15525 16.5987C10.6237 16.7882 12.1136 16.4896 13.3956 15.749C14.6777 15.0084 15.6806 13.8668 16.25 12.5M16.6666 15.8334V12.5H13.3333" stroke="#9D9D9D" stroke-width="2" stroke-linecap="round" stroke-linejoin="round"/>
</svg>
