<svg width="116" height="116" viewBox="0 0 116 116" fill="none" xmlns="http://www.w3.org/2000/svg">
<path d="M40.1535 28.0314C41.9385 24.7317 44.603 21.9911 47.8513 20.114C51.0995 18.2368 54.8044 17.2965 58.5546 17.3975C62.3049 17.4984 65.9538 18.6366 69.0964 20.6858C72.2389 22.7349 74.7522 25.6148 76.3571 29.0058C72.1324 29.101 68.0268 30.4248 64.5422 32.8155C61.0576 35.2062 58.345 38.5602 56.7357 42.4676C55.2498 39.9957 53.4719 37.7115 51.4403 35.6642C48.1729 32.4556 44.3481 29.8691 40.1535 28.0314ZM98.5537 52.2C98.5847 51.7206 98.6001 51.2372 98.6001 50.75C98.6021 46.0373 97.0732 41.4514 94.2437 37.6826C91.4143 33.9137 87.4372 31.1659 82.9111 29.8526C81.3478 24.9 78.3432 20.5261 74.2813 17.2899C70.2194 14.0538 65.2847 12.1024 60.108 11.6852C54.9313 11.2681 49.7478 12.404 45.2201 14.948C40.6924 17.4919 37.0261 21.3283 34.6899 25.9666C32.3828 25.2484 30.0331 24.675 27.6545 24.2498C23.6314 23.5271 19.5504 23.1757 15.4629 23.2L14.3957 23.2348H14.3725C13.6631 23.2763 12.9935 23.5768 12.491 24.0793C11.9885 24.5818 11.688 25.2514 11.6465 25.9608V25.9666L11.6001 27.057C11.5728 31.1501 11.9222 35.237 12.6441 39.266C13.3575 43.2216 14.5639 47.7572 16.6171 52.2H14.5001C13.731 52.2 12.9934 52.5056 12.4495 53.0494C11.9057 53.5933 11.6001 54.3309 11.6001 55.1V58C11.6001 62.002 12.1105 65.888 13.0617 69.6H102.939C103.913 65.8104 104.404 61.9128 104.4 58V55.1C104.4 54.3309 104.095 53.5933 103.551 53.0494C103.007 52.5056 102.269 52.2 101.5 52.2H98.5537ZM23.1073 52.2C20.5901 47.6644 19.1517 42.6938 18.3513 38.2336C17.8043 35.188 17.4902 32.105 17.4117 29.0116L18.0729 29.0348C20.2305 29.1102 23.2349 29.3422 26.6221 29.957C33.4661 31.1924 41.5049 33.93 47.3397 39.7648C50.9125 43.3376 53.3311 47.7456 54.9551 52.2H44.7065L33.9533 41.4468C33.6837 41.1776 33.3637 40.9641 33.0115 40.8185C32.6594 40.6729 32.282 40.5981 31.901 40.5984C31.5199 40.5987 31.1427 40.674 30.7907 40.8201C30.4388 40.9661 30.1191 41.1801 29.8498 41.4497C29.5806 41.7194 29.3671 42.0394 29.2215 42.3915C29.0759 42.7437 29.0011 43.121 29.0014 43.5021C29.0017 43.8831 29.077 44.2604 29.2231 44.6123C29.3691 44.9643 29.5831 45.284 29.8527 45.5532L36.5053 52.2H23.1073ZM61.0857 52.2L60.9291 51.7302C60.8029 49.5421 61.129 47.3514 61.8871 45.2949C62.6452 43.2384 63.819 41.3603 65.3353 39.7776C66.8515 38.1949 68.6777 36.9418 70.6998 36.0963C72.7219 35.2508 74.8966 34.8311 77.0882 34.8635C79.2797 34.8958 81.441 35.3795 83.4373 36.2844C85.4336 37.1892 87.222 38.4958 88.6908 40.1225C90.1597 41.7493 91.2775 43.6613 91.9746 45.7393C92.6716 47.8172 92.9329 50.0166 92.7421 52.2H61.0857ZM58.0001 104.4C48.7557 104.402 39.7213 101.643 32.0556 96.4758C24.3899 91.3088 18.4424 83.9699 14.9757 75.4H101.03C97.5633 83.9708 91.6148 91.3104 83.948 96.4774C76.2812 101.644 67.2456 104.403 58.0001 104.4Z" fill="#6C6C6C"/>
</svg>
