<svg width="30" height="30" viewBox="0 0 30 30" fill="none" xmlns="http://www.w3.org/2000/svg">
<rect width="30" height="30" rx="15" fill="#E74133"/>
<path d="M19.224 9.28521C19.6139 8.89415 20.2462 8.89427 20.6361 9.28521C21.026 9.6763 21.026 10.3101 20.6361 10.7012L16.4115 14.9385L20.7582 19.2979C21.1478 19.6889 21.1476 20.3228 20.7582 20.7139C20.3683 21.105 19.736 21.105 19.3461 20.7139L14.9994 16.3546L10.6537 20.7149C10.2638 21.1056 9.63139 21.1058 9.2416 20.7149C8.85171 20.3238 8.8518 19.689 9.2416 19.2979L13.5873 14.9376L9.36367 10.7012C8.97377 10.3101 8.97375 9.67632 9.36367 9.28521C9.75361 8.89423 10.3859 8.89414 10.7758 9.28521L14.9994 13.5215L19.224 9.28521Z" fill="white"/>
</svg>
