<svg width="32" height="32" viewBox="0 0 32 32" fill="none" xmlns="http://www.w3.org/2000/svg">
<path d="M16.0002 5.81875C18.2189 5.81875 20.0216 7.62142 20.0216 9.84008C20.0216 12.0587 18.2189 13.8614 16.0002 13.8614C13.7816 13.8614 11.9789 12.0587 11.9789 9.84008C11.9789 7.62142 13.7816 5.81875 16.0002 5.81875ZM16.0002 4.21875C12.8962 4.21875 10.3789 6.73608 10.3789 9.84008C10.3789 12.9441 12.8962 15.4614 16.0002 15.4614C19.1042 15.4614 21.6216 12.9441 21.6216 9.84008C21.6216 6.73608 19.1042 4.21875 16.0002 4.21875Z" fill="#9D9D9D"/>
<path d="M24.9598 28.5813H7.03977C6.49577 28.5813 5.9731 28.3413 5.61577 27.9307C5.26377 27.5253 5.1091 26.9867 5.1891 26.464C6.06377 20.576 10.6078 16.3093 15.9998 16.3093C21.3918 16.3093 25.9358 20.5813 26.8104 26.464C26.8904 26.992 26.7304 27.5253 26.3838 27.9307C26.0264 28.3467 25.5091 28.5813 24.9598 28.5813ZM15.9998 17.904C11.4078 17.904 7.53043 21.6 6.7731 26.6987C6.76243 26.784 6.79977 26.848 6.83177 26.8853C6.85843 26.912 6.92777 26.9813 7.03977 26.9813H24.9544C25.0664 26.9813 25.1411 26.912 25.1624 26.8853C25.1944 26.848 25.2318 26.784 25.2211 26.6987C24.4638 21.6053 20.5864 17.904 15.9944 17.904H15.9998Z" fill="#9D9D9D"/>
</svg>
