<svg width="384" height="384" viewBox="0 0 384 384" fill="none" xmlns="http://www.w3.org/2000/svg">
<g clip-path="url(#clip0_990_265)">
<path d="M370.31 191.86C401.3 249.62 377.89 301.9 318.13 317.84C302.19 377.6 249.9 401.01 192.15 370.02C134.39 401.01 82.1102 377.6 66.1702 317.84C6.41017 301.9 -16.9998 249.61 13.9902 191.86C-16.9998 134.1 6.41017 81.8201 66.1702 65.8801C82.1002 6.11011 134.39 -17.2999 192.14 13.6901C249.9 -17.2999 302.18 6.11012 318.12 65.8701C377.88 81.8101 401.29 134.1 370.3 191.85L370.31 191.86Z" fill="#7EBE27"/>
<path d="M192.14 13.6901C134.38 -17.2999 82.1002 6.11012 66.1602 65.8701L192.14 191.85V13.6901Z" fill="#7ED427"/>
<path d="M192.14 370.02C249.9 401.01 302.18 377.6 318.12 317.84L192.14 191.86V370.03V370.02Z" fill="#7ED427"/>
<path d="M192.14 191.86L66.1604 65.8801C6.4004 81.8101 -17.0096 134.1 13.9804 191.86H192.15H192.14Z" fill="#77CC27"/>
<path d="M192.43 191.86H14.2702C-16.7198 245.39 3.70019 298.91 66.4502 317.84L192.43 191.86Z" fill="#77CC27"/>
<path d="M115.36 155.41C130.023 155.41 141.91 143.523 141.91 128.86C141.91 114.197 130.023 102.31 115.36 102.31C100.697 102.31 88.8101 114.197 88.8101 128.86C88.8101 143.523 100.697 155.41 115.36 155.41Z" fill="#FF8C25"/>
<path d="M268.26 266.35C282.923 266.35 294.81 254.463 294.81 239.8C294.81 225.137 282.923 213.25 268.26 213.25C253.597 213.25 241.71 225.137 241.71 239.8C241.71 254.463 253.597 266.35 268.26 266.35Z" fill="#F6E526"/>
<path d="M149.71 267.28L308.16 62.8701C310.86 59.3901 310.22 54.3801 306.74 51.6801C303.26 48.9801 298.25 49.6201 295.55 53.1001L137.1 257.51C122.26 257.09 92.7003 260.54 69.7103 290.19C50.8503 314.52 51.1203 344.29 69.1103 358.23C87.1003 372.17 115.99 365.02 134.85 340.69C157.84 311.03 153.8 281.55 149.7 267.28H149.71Z" fill="#121212"/>
</g>
<defs>
<clipPath id="clip0_990_265">
<rect width="384" height="383.71" fill="white"/>
</clipPath>
</defs>
</svg>
