<svg width="873" height="214" viewBox="0 0 873 214" fill="none" xmlns="http://www.w3.org/2000/svg">
<path d="M205.866 16.527C205.866 17.4402 211.569 19.0382 212.481 19.4948C213.393 19.9514 213.85 20.408 214.078 20.8646C215.218 24.9738 215.674 29.9963 215.446 35.7036C214.078 48.9445 209.516 102.365 207.919 122.683C205.41 148.252 205.182 146.654 204.498 163.091C204.042 171.994 203.585 179.3 202.673 187.29C202.217 190.258 199.936 194.823 196.287 201.216C195.374 202.585 193.321 203.499 190.128 203.499C189.444 203.499 182.829 203.727 170.056 203.727C165.494 203.727 162.529 200.759 162.301 196.65L160.704 172.679C160.704 171.309 159.792 163.091 160.02 161.721C160.476 154.872 161.388 148.252 162.757 141.86C164.125 133.184 162.301 130.445 153.633 132.271C141.088 134.783 130.824 124.966 133.105 112.41C135.158 100.767 143.141 93.2333 155.914 92.0918C161.616 91.8635 167.319 87.2977 167.775 81.5904C168.231 73.6001 170.284 45.7485 170.968 37.3016C171.196 35.0187 171.881 30.9094 173.021 25.4304C174.39 20.408 177.583 18.1251 182.601 18.1251C188.759 18.3533 194.462 18.3533 199.708 18.3533C199.708 18.3533 201.761 17.8968 205.866 16.527ZM9.93453 34.1055C11.075 33.4207 12.8997 31.5943 14.9526 31.5943C15.8649 31.5943 20.6549 31.366 28.8662 31.366V30.9094C65.5892 33.649 64.6768 32.9641 88.3985 35.7036C94.3289 36.1602 100.031 44.1504 99.347 51.2275C98.8908 54.8801 97.2942 62.4138 94.1008 73.3718C92.7323 76.7962 88.3985 89.8089 87.4862 93.9182C85.2052 100.995 86.3457 104.876 92.5042 106.474C96.6099 107.387 105.734 109.442 119.419 112.638C123.753 113.551 125.121 116.291 123.753 120.857C122.384 124.281 117.366 142.088 116.226 145.512C112.804 153.503 107.786 157.383 100.944 156.927C100.031 156.927 99.5751 156.927 99.347 157.155C97.5222 158.068 95.6975 158.525 94.1008 158.525C89.539 158.525 88.6266 158.068 85.8895 155.785C81.7838 152.589 82.9243 153.274 79.2748 149.393C74.7129 144.599 72.2039 141.86 71.5196 141.175C67.8702 137.979 63.7645 138.207 60.5712 141.631C57.1498 144.827 54.1846 148.48 51.6755 152.589C50.7632 153.503 47.1137 159.666 40.499 171.081C36.1652 177.702 25.4449 182.267 14.2683 178.843C2.40746 175.19 -1.24203 164.232 0.354625 148.252C0.582718 145.284 2.40746 142.773 5.60076 140.49C18.1459 130.902 39.5866 118.345 49.1665 107.159C53.0441 102.593 59.6588 90.7221 53.9565 84.1016C51.6755 81.5904 48.4822 80.4489 44.1485 80.9055C30.4629 81.8187 19.5144 79.0791 11.7593 72.2304C9.02216 69.7192 7.42551 66.7514 7.42551 63.327C6.96932 60.1309 7.19742 53.0538 8.10979 42.3241C8.10979 40.9543 10.1626 38.4431 10.6188 37.3016C10.8469 36.6168 10.6188 35.4753 9.93453 34.1055Z" fill="#121212"/>
<path d="M428.772 60.5875C428.772 71.3172 425.806 83.4167 425.806 93.9182C425.578 98.484 424.438 101.908 423.754 106.474C422.157 111.497 420.56 114.236 415.77 116.063C412.805 116.976 405.962 120.172 401.629 120.172C398.207 120.628 397.295 119.03 396.611 116.291C396.611 115.606 396.382 114.464 396.382 113.095C396.382 112.182 396.154 111.268 396.154 109.899L395.926 106.703C390.908 105.789 383.609 105.104 377.679 105.104C371.52 104.876 367.415 104.191 366.502 98.484C366.046 97.3425 365.362 92.7767 364.906 90.7221C364.449 88.8957 364.221 87.526 364.221 86.6128C363.309 74.9699 378.819 77.2528 389.083 75.8831C392.505 75.8831 394.786 75.8831 396.154 74.285C396.382 74.0567 396.611 73.8284 396.839 73.3718C396.839 71.7738 397.067 71.3172 397.067 66.7514V54.8801C396.839 55.1084 396.611 55.1084 396.154 55.1084H395.242C395.014 55.3367 394.786 55.3367 394.33 55.3367C391.592 55.7933 389.768 56.0216 388.399 56.0216C381.1 56.4782 376.995 56.9348 376.082 56.9348C375.626 56.9348 373.801 57.3914 373.117 57.3914C371.748 57.6197 370.836 57.6197 370.152 57.3914C365.362 57.3914 363.993 46.4333 364.221 40.4977C364.221 36.1602 365.59 31.8226 368.783 30.6812C369.696 30.4528 372.205 30.2246 375.854 29.9963C378.135 29.9963 387.259 29.5397 389.083 29.5397C391.592 29.3114 393.873 29.0831 396.154 28.8548C396.154 27.485 396.382 26.1153 396.382 24.5172C396.382 14.929 398.891 8.30849 402.541 2.60118C404.138 0.546539 406.19 -0.594932 409.612 0.318248C410.98 0.54654 412.349 0.774831 413.717 1.00312C414.402 1.00312 414.858 1.00312 415.086 1.23141C415.77 1.23141 416.455 1.23141 416.683 1.688C422.841 1.688 425.806 5.11238 426.034 10.5914C426.034 20.8646 426.947 32.2792 427.403 43.4655C427.631 45.7485 428.544 53.0538 428.544 54.8801C428.772 56.7065 428.772 58.7611 428.772 60.5875ZM281.652 8.0802C284.845 8.0802 301.952 6.02556 305.373 6.02556C312.672 6.25385 321.34 7.16702 331.376 8.53678C338.447 9.67824 339.131 12.646 339.359 20.1797C339.587 22.4626 340.728 38.4431 340.728 40.9543C340.728 53.5104 339.131 68.806 331.148 72.0021C327.498 73.6001 320.656 74.0567 310.848 73.6001C306.514 73.6001 269.791 75.4265 265.913 75.6548C265.001 80.4489 266.141 90.4938 270.703 90.0372C274.809 89.8089 285.073 90.2655 301.04 91.4069C317.006 92.7767 326.814 93.2333 330.235 93.005C332.06 98.9406 332.516 102.822 332.06 104.876C331.604 106.931 329.095 109.67 324.989 113.095C324.533 114.008 319.743 114.693 318.147 114.693C310.391 116.976 296.478 116.976 276.177 114.693C259.299 112.866 248.806 111.725 244.929 111.04C238.542 110.127 234.665 108.985 233.296 107.616C231.927 106.474 231.015 103.506 230.559 98.484C230.331 92.7767 226.909 84.3299 225.997 79.0791C225.313 74.0567 226.681 68.5777 230.331 63.0987C233.98 57.6197 238.77 54.8801 244.244 54.6519C250.175 54.4236 298.759 53.5104 304.461 53.0538L306.058 50.9992C304.233 45.0636 304.917 39.3563 298.531 37.5299C296.706 37.0733 294.425 36.845 291.232 36.845C271.159 36.845 255.193 37.3016 242.876 37.9865C232.155 38.6714 227.366 35.247 229.418 23.8324C230.559 19.2665 233.752 17.8968 235.805 14.2441C237.174 12.1895 239.454 11.048 242.42 10.8197C249.262 10.3631 275.265 8.76507 281.652 8.0802ZM352.589 163.776C352.589 160.123 351.904 158.068 348.027 158.068H309.935V182.724C315.409 185.463 320.656 186.605 325.217 186.605C337.078 186.605 343.921 186.377 345.974 185.692C352.589 184.094 353.273 179.3 352.589 171.081C352.589 168.798 352.589 166.743 352.589 164.917V163.776ZM269.107 190.029C269.107 189.116 269.335 183.865 269.335 182.952C270.019 169.026 270.475 159.666 270.931 155.101C272.984 133.869 278.686 125.879 300.355 125.879C301.724 125.879 305.829 126.107 306.97 126.107C327.498 126.107 342.552 125.423 352.589 124.053C355.554 123.824 358.291 123.596 360.8 123.596C373.117 123.596 383.837 127.477 392.961 135.239C397.523 138.892 400.716 148.48 400.716 156.699C400.716 158.525 400.716 160.123 400.26 161.493C398.207 173.592 395.242 192.541 391.592 202.129C390.908 203.955 389.312 205.553 386.574 206.466C373.117 211.489 358.519 214 343.009 214C327.498 214 317.69 213.543 313.357 212.63C292.372 208.064 280.055 205.097 276.406 203.955C272.072 202.585 269.107 196.193 269.107 190.029Z" fill="#121212"/>
<path d="M554.053 52.1406C554.509 59.6743 544.701 57.3914 541.964 61.2723L544.929 64.4684C557.703 73.1435 561.352 85.0148 556.106 100.082C553.825 106.474 548.579 114.464 540.367 123.824C537.858 126.564 531.472 128.847 526.682 129.075C499.995 130.217 475.817 128.619 467.606 112.638C463.044 104.191 464.641 95.0596 471.94 85.243C475.589 80.2206 481.748 73.8284 486.538 69.7192C471.027 66.9797 462.588 65.3816 460.991 65.1533C456.201 64.2401 453.92 61.5006 454.148 57.3914V42.0958C474.449 34.1055 498.855 35.247 523.945 38.2148C526.682 38.6714 529.647 38.6714 532.84 38.6714C537.858 38.6714 549.035 38.4431 554.053 38.4431V52.1406ZM513.452 111.725C521.892 111.725 529.419 106.246 529.419 97.7991C528.963 89.5806 523.945 87.9826 514.821 87.526C506.382 87.2977 502.96 96.6577 501.82 104.191C500.907 110.584 506.61 111.497 513.452 111.725ZM485.625 33.1924C486.766 24.9738 487.45 19.7231 487.678 17.4402C487.678 17.2119 487.906 16.7553 488.362 16.0704C490.871 13.7875 495.889 11.7329 503.416 10.1348C517.558 7.16702 527.366 9.44994 529.419 19.4948C531.244 28.1699 523.945 33.8772 514.365 33.8772C512.996 34.1055 505.697 33.8772 492.468 33.4207C491.556 33.4207 489.275 33.4207 485.625 33.1924ZM595.566 74.285C595.566 73.6001 596.706 17.6685 596.706 17.2119C596.706 9.90653 600.584 8.30849 605.83 5.56898C611.304 2.82947 616.322 -0.594932 624.534 0.0899571C631.377 0.54654 635.482 2.14458 635.482 8.0802C635.482 10.8197 636.851 50.7709 637.079 52.8255C637.535 54.6519 638.904 55.7933 641.413 56.0216C652.361 56.9348 658.52 57.3914 659.888 57.6197C669.468 59.9026 665.819 77.4811 661.941 83.8733C661.029 85.4713 658.52 86.6128 654.186 87.0694H636.167V116.519C636.167 119.03 635.938 123.596 635.254 129.988C634.798 133.641 632.745 135.696 628.868 135.696C620.884 135.924 613.813 135.924 607.883 135.467C601.496 135.239 596.022 130.217 595.566 123.596C595.566 110.355 595.566 93.9182 595.566 74.285ZM508.891 135.924C508.891 136.837 510.487 144.371 510.487 145.056C510.487 148.252 512.312 158.068 512.996 164.917C513.452 167.885 513.909 170.396 514.365 172.679L542.42 171.081C595.11 168.113 588.495 168.798 622.709 165.374C626.359 164.917 629.552 164.689 631.833 164.689C636.851 164.689 638.904 175.647 638.904 185.235C638.904 190.486 637.535 195.737 634.798 201.216C633.886 202.814 631.833 203.955 628.639 204.412C626.587 204.64 566.142 208.293 564.089 208.521C563.177 208.749 562.492 208.749 561.58 208.749C554.053 208.749 516.646 209.662 509.575 209.891C507.066 209.891 497.714 210.576 495.205 210.576C488.134 210.576 482.204 209.206 479.467 204.64C478.554 203.27 478.326 202.129 478.326 200.759C477.414 191.399 476.045 156.47 475.589 146.882L475.361 143.686C475.361 141.403 475.361 139.348 475.361 137.065L475.133 133.869C475.817 133.869 482.204 132.271 482.888 132.043C484.485 131.815 488.134 131.586 493.836 131.586C502.276 131.586 508.891 131.13 508.891 135.924Z" fill="#121212"/>
<path d="M872.985 190.486C872.985 199.846 868.88 208.064 860.668 207.836C850.632 207.836 837.175 209.206 834.21 201.901C829.648 190.942 827.367 182.496 827.139 176.56C826.226 157.612 825.542 63.5553 824.858 44.607C824.858 35.7036 823.717 28.3982 822.805 19.2665L821.436 7.6236C830.104 7.16702 834.666 6.93872 835.122 6.93872C844.246 7.39531 854.966 9.22165 863.406 9.67824C867.739 10.1348 870.02 12.646 870.248 16.9836C870.704 40.9543 873.214 65.8382 872.985 90.7221C872.985 101.908 872.985 109.67 872.985 114.008C872.985 121.998 872.985 181.582 872.985 190.029V190.486ZM672.72 38.8997C672.72 36.3885 674.773 34.5621 676.141 33.4207C685.265 31.1377 695.985 33.649 704.425 34.5621C708.53 35.0187 714.233 35.0187 721.532 34.7904C730.199 34.3338 732.708 36.6168 733.621 44.3787C736.586 66.7514 730.655 123.824 727.918 138.892C726.322 148.023 725.409 153.959 725.181 156.927C725.181 158.297 721.532 176.56 721.304 177.473C720.391 185.92 715.373 190.714 706.478 190.942C702.6 190.942 698.038 190.942 693.02 190.486C691.195 190.486 690.511 188.66 691.195 186.148C693.476 178.843 696.898 159.666 701.459 129.075C706.249 98.484 708.302 77.2528 707.846 65.6099C707.618 61.2723 706.478 60.5875 702.372 59.2177C701.003 58.5328 696.669 58.3045 689.827 58.5328C681.159 58.9894 677.282 59.6743 674.544 57.1631C673.404 56.0216 672.72 53.967 672.72 50.9992V38.8997ZM739.323 36.1602C747.078 34.7904 755.061 34.3338 762.817 34.3338C771.484 34.3338 783.801 34.5621 787.451 39.128C790.644 42.0958 792.241 51.2275 792.469 56.9348C792.697 61.2723 791.328 79.764 791.328 83.645C790.644 113.551 791.1 159.438 786.994 185.692C786.766 187.975 777.643 187.975 776.274 189.344C771.712 193.91 762.588 190.258 755.518 190.258C755.518 188.203 755.746 184.55 756.658 179.071C758.027 171.538 758.711 162.863 758.711 153.274L758.483 120.172C758.483 110.812 758.255 103.735 758.027 99.1689C757.798 95.2879 760.079 82.5035 760.079 78.3943C760.079 74.9699 758.939 69.0343 756.658 67.2079C755.974 66.5231 752.096 66.0665 750.956 65.6099C745.938 64.0118 742.288 63.327 739.551 63.327C738.411 63.327 736.586 59.6743 736.814 58.5328C737.498 54.1953 735.673 40.4977 735.902 36.6168L739.323 36.1602Z" fill="#121212"/>
</svg>
